<svg xmlns="http://www.w3.org/2000/svg" width="1500" height="2000" shape-rendering="geometricPrecision" image-rendering="optimizeQuality" fill-rule="evenodd" ><circle fill="white" cx="750" cy="1000" r="750"/><path fill="#686868" d="M1114.5 479.5l-7 3.5a194.86 194.86 0 0 1-19 14c-3.27 2.698-5.6 5.531-7 8.5-41.23-41.135-88.56-73.635-142-97.5-88.268-39.434-180.601-55.434-277-48-44.809 5.367-87.476 17.867-128 37.5 27.695-19.174 58.028-33.007 91-41.5 65.395-15.718 131.395-18.718 198-9 90.26 11.521 172.927 42.521 248 93 15.87 11.201 30.54 23.867 44 38-.56.383-.89.883-1 1.5z"/><path fill="#282828" d="M1081.5 505.5c.11 2.283.94 4.283 2.5 6a754.64 754.64 0 0 1 58 72c4.84 8.344 9.01 17.01 12.5 26l1.5 1c8.57-5.9 16.57-12.566 24-20l3-5c.31-4.238.48-8.238.5-12 3.43 4.058 3.76 8.391 1 13 .12.607.46.94 1 1-7.81 8.976-16.48 17.143-26 24.5-1.28.684-2.45.517-3.5-.5-.28.916-.78 1.582-1.5 2 .13-.876-.2-1.543-1-2-7.23 2.841-14.23 5.841-21 9-4.13 1.886-8.46 3.553-13 5a10.25 10.25 0 0 1-4-1.5 592.13 592.13 0 0 0-48.5-66.5 191.18 191.18 0 0 0-17-16c-.72-1.612-.55-3.112.5-4.5-41.1-41.562-88.434-74.229-142-98-22.627-10.24-46.294-16.573-71-19-6.053-1.774-11.22-4.941-15.5-9.5-.651-1.735-.485-3.402.5-5-7.389-3.073-15.055-5.24-23-6.5a813.3 813.3 0 0 1-32-2.5 160.18 160.18 0 0 1-28 .5c-20.591-5.513-40.924-4.513-61 3a778.72 778.72 0 0 1-34 15.5c-3.604-.897-3.937-2.563-1-5a429 429 0 0 0 33-21.5c-6.075-3.876-12.741-5.376-20-4.5-11.213-.47-21.88 1.697-32 6.5-9.985 4.322-19.318 9.655-28 16-9.036 8.704-18.369 17.038-28 25-8.73 3.198-17.063 7.198-25 12-3.721 3.943-6.555 8.443-8.5 13.5a20.49 20.49 0 0 0 0 9 112.67 112.67 0 0 0 3.5 8c-.247 2.582-1.58 3.415-4 2.5-3.092-3.737-7.092-5.403-12-5-1.869-1.602-3.869-2.602-6-3 3.461 2.987 3.961 6.487 1.5 10.5-5.575 8.207-13.408 12.373-23.5 12.5a42.48 42.48 0 0 1-13 0l-1.5-1.5c.409 17.128-5.591 31.461-18 43-1.608 3.556-3.441 6.889-5.5 10a.91.91 0 0 0-.5-1c-2.963 1.744-6.129 2.244-9.5 1.5-6.544-1.681-12.877-3.848-19-6.5v3c-.855-2.675-2.022-5.342-3.5-8-5.027-6.853-10.527-13.186-16.5-19-1.075-2.311-1.075-4.644 0-7 34.028-46.029 76.361-82.362 127-109 40.524-19.633 83.191-32.133 128-37.5 96.399-7.434 188.732 8.566 277 48 53.44 23.865 100.77 56.365 142 97.5z"/><path fill="#3e3e3e" d="M1114.5 479.5c5.14 1.963 9.64 4.963 13.5 9a406.8 406.8 0 0 0 29 37 252.21 252.21 0 0 1 10.5 17c-5.01 6.844-11.34 12.01-19 15.5l-5 5 1.5 1.5c9.39-4.434 17.56-10.434 24.5-18a2.85 2.85 0 0 1 2.5 1c3.55 6.161 5.88 12.827 7 20 1.33 2.16 2.83 4.16 4.5 6-.02 3.762-.19 7.762-.5 12l-3 5c-7.43 7.434-15.43 14.1-24 20l-1.5-1c-3.49-8.99-7.66-17.656-12.5-26a754.64 754.64 0 0 0-58-72c-1.56-1.717-2.39-3.717-2.5-6 1.4-2.969 3.73-5.802 7-8.5a194.86 194.86 0 0 0 19-14l7-3.5z"/><path fill="#050505" d="M456.5 543.5c-.25 2.174-1.25 3.841-3 5-9.268-.868-17.934-3.535-26-8v-3c6.123 2.652 12.456 4.819 19 6.5 3.371.744 6.537.244 9.5-1.5a.91.91 0 0 1 .5 1z"/><path fill="#282828" d="M427.5 540.5c8.066 4.465 16.732 7.132 26 8a164.34 164.34 0 0 0-11 44c-8.584 8.299-18.251 15.132-29 20.5-10.793 3.259-21.793 5.425-33 6.5 4.354-11.042 9.521-21.709 15.5-32a462.3 462.3 0 0 1 31.5-47z"/><path fill="#686868" d="M1167.5 542.5c.84 1.171 1.51 2.505 2 4-6.94 7.566-15.11 13.566-24.5 18l-1.5-1.5 5-5c7.66-3.49 13.99-8.656 19-15.5z"/><path fill="#3e3e3e" d="M1185.5 587.5c2.82-.419 4.99.581 6.5 3l21 63a56.32 56.32 0 0 1 2.5 18c-.79-1.109-1.29-2.442-1.5-4-2.42 4.76-5.92 8.593-10.5 11.5-4.94 2.606-9.6 5.606-14 9-2.81 1.741-5.81 2.908-9 3.5-5.52-26.899-14.19-52.566-26-77v-1c.72-.418 1.22-1.084 1.5-2 1.05 1.017 2.22 1.184 3.5.5 9.52-7.357 18.19-15.524 26-24.5z"/><path fill="#060606" d="M442.5 592.5c.182 2.091-.152 4.091-1 6a377.56 377.56 0 0 0-22 13.5c-1.537 1.11-2.203 2.61-2 4.5l-37.5 8c-.902-.243-1.735-.577-2.5-1 .271-1.93 1.271-3.264 3-4 11.207-1.075 22.207-3.241 33-6.5 10.749-5.368 20.416-12.201 29-20.5z"/><path fill="#020202" d="M1154.5 613.5v1a284.32 284.32 0 0 1-21 8c.17-.992-.16-1.658-1-2 6.77-3.159 13.77-6.159 21-9 .8.457 1.13 1.124 1 2z"/><path d="M1154.5 614.5c11.81 24.434 20.48 50.101 26 77 3.19-.592 6.19-1.759 9-3.5 4.4-3.394 9.06-6.394 14-9 4.58-2.907 8.08-6.74 10.5-11.5.21 1.558.71 2.891 1.5 4h1c-1.46 1.963-3.13 3.796-5 5.5l-29 18.5-1 3c3.43 22.888 4.6 45.888 3.5 69-1.41 16.541-3.74 32.874-7 49a442.84 442.84 0 0 0 13-25 78.09 78.09 0 0 1 11.5-14 39.15 39.15 0 0 1 5-1c9.44 1.155 18.77 2.821 28 5-8.29 2.758-15.12 7.758-20.5 15-17.81 26.624-30.47 55.624-38 87a392.18 392.18 0 0 0-11.5 80 128.69 128.69 0 0 0 5.5 37c3.74 5.1 5.57 10.77 5.5 17a447.85 447.85 0 0 1-.5 30c-1.95 6.56-4.95 12.56-9 18 .22 6.66.22 13.32 0 20-1.03 5.06-3.36 9.39-7 13-1.02 10.37-2.36 20.7-4 31-1.28 6.97-5.12 11.64-11.5 14-2.32 9.46-5.15 18.79-8.5 28a1248.37 1248.37 0 0 0-25 64 415.79 415.79 0 0 1-43 64l-52.5 52.5a951.98 951.98 0 0 1-56 48l-13.5 13.5-48 54-21 31a1863.65 1863.65 0 0 0-35 74c-9.091 13.84-17.424 28.18-25 43-7.741 12.64-17.241 23.81-28.5 33.5l-112 82c-1.284.68-2.451.52-3.5-.5-.802-4.92-.635-9.75.5-14.5 12.083-10.08 24.749-19.41 38-28a841.36 841.36 0 0 0 58-38c11.484-11.49 21.651-23.99 30.5-37.5a2726.9 2726.9 0 0 1 75-134c20.657-29.33 44.824-55.49 72.5-78.5 37.634-39.63 75.8-78.46 114.5-116.5 17.96-20.02 31.96-42.68 42-68l25.5-75-1-4c1.08-6.3 1.91-12.63 2.5-19l5.5-18.5a184.89 184.89 0 0 1-4-11.5c2.08-9.6 2.41-19.27 1-29-5.32 4.16-10.32 8.66-15 13.5-4.56 1.17-8.89 2.84-13 5-6.58 1.62-12.24.12-17-4.5-4.21-5.75-7.37-12.08-9.5-19a203.3 203.3 0 0 1-6-35c-2.68-88.252 10.99-173.918 41-257 8.03-22.728 18.7-44.061 32-64a128.94 128.94 0 0 1 7.5-8.5c-.07-.765-.4-1.265-1-1.5l-19.5-59c-.79-2.212-.62-4.212.5-6a284.32 284.32 0 0 0 21-8zm-737 2a312.5 312.5 0 0 1 1.5 45c-2.901.434-5.401 1.601-7.5 3.5.93 5.45 1.263 10.95 1 16.5-3.139 3.97-6.805 7.47-11 10.5a103.66 103.66 0 0 1-12.5 2.5c-6.806-.861-13.639-1.194-20.5-1l9-70c.765.423 1.598.757 2.5 1l37.5-8zm726 71c.17 1.322-.16 2.489-1 3.5-8.45 2.442-15.29 7.275-20.5 14.5-13.55 19.441-24.22 40.441-32 63-28.72 83.799-39.39 169.799-32 258 1.71 11.85 4.21 23.52 7.5 35a332.99 332.99 0 0 1-34 1.5c-10.05-2.55-16.72-8.72-20-18.5-2.93-5.48-3.43-11.15-1.5-17a33.94 33.94 0 0 0 7.5-16.5c.24-5.58-2.42-7.75-8-6.5-.16-1.37.01-2.71.5-4a50.5 50.5 0 0 0 7.5-4.5 14.83 14.83 0 0 1-3-3.5c4.09-6.316 2.09-9.316-6-9a28.77 28.77 0 0 0-1-10c4.88-.802 6.21-3.469 4-8 1.84-2.011 3.51-4.178 5-6.5-.59-2.53-1.93-4.53-4-6 4.75-6.733 5.25-13.9 1.5-21.5l-11.5-31a593.55 593.55 0 0 1 7-48 1124.36 1124.36 0 0 0 8-41 53.85 53.85 0 0 0 2-10c7.79-32.898 18.95-64.565 33.5-95 7.27-11.935 17.1-21.101 29.5-27.5a133.64 133.64 0 0 1 33-4.5c11.67-.494 21.01 3.839 28 13z" fill="#282828"/><path fill="#030303" d="M447.5 677.5c1.599-.268 2.932.066 4 1-2.276 1.831-4.109 4.164-5.5 7-14.421 38.365-20.088 78.031-17 119a53.89 53.89 0 0 0 3.5 14c0 .667-.333 1-1 1-2.114-.86-3.28-2.527-3.5-5-5.505-43.451-.839-85.785 14-127a72 72 0 0 1 5.5-10z"/><path d="M447.5 677.5a72 72 0 0 0-5.5 10c-14.839 41.215-19.505 83.549-14 127 .22 2.473 1.386 4.14 3.5 5a897.93 897.93 0 0 0-32 21.5 26.9 26.9 0 0 1-5.5 6.5c-.384 1.697-.218 3.363.5 5-1.136 8.588-1.302 17.255-.5 26 .465 1.431 1.299 2.597 2.5 3.5 7.257 2.872 12.757 7.705 16.5 14.5 1.651 4.245 2.984 8.579 4 13 1.582 18.085 5.249 35.752 11 53a228.78 228.78 0 0 0 9.5 18v37h-1c-30.17-50.692-47.003-105.692-50.5-165-4.231-47.026.769-93.026 15-138 4.222-11.023 9.389-21.523 15.5-31.5-1.519.331-2.852.164-4-.5l3-2a11.25 11.25 0 0 0 3.5 1c9.483-1.622 18.983-2.956 28.5-4zm4 1c7.478-1.612 11.811 1.221 13 8.5a902.55 902.55 0 0 0-2 109c-.057 2.209-1.057 3.709-3 4.5l-27 18a53.89 53.89 0 0 1-3.5-14c-3.088-40.969 2.579-80.635 17-119 1.391-2.836 3.224-5.169 5.5-7z" fill="#282828"/><path fill="#040404" d="M412.5 681.5v1c1.148.664 2.481.831 4 .5-6.111 9.977-11.278 20.477-15.5 31.5-14.231 44.974-19.231 90.974-15 138 3.497 59.308 20.33 114.308 50.5 165-1.871-.36-3.371-1.36-4.5-3-4.95-6.9-9.116-14.23-12.5-22-15.965-33.883-26.965-69.216-33-106-7.922-51.034-6.088-101.7 5.5-152 4.243-14.734 9.243-29.067 15-43-3.372 2.769-7.205 4.602-11.5 5.5-9.411.805-18.744.638-28-.5.057-1.109.39-2.109 1-3 6.861-.194 13.694.139 20.5 1a103.66 103.66 0 0 0 12.5-2.5c4.195-3.03 7.861-6.53 11-10.5z"/><path fill="#3d3d3d" d="M1143.5 687.5l2 2a54.58 54.58 0 0 1 7-2c.6.235.93.735 1 1.5a128.94 128.94 0 0 0-7.5 8.5c-13.3 19.939-23.97 41.272-32 64-30.01 83.082-43.68 168.748-41 257a203.3 203.3 0 0 0 6 35c2.13 6.92 5.29 13.25 9.5 19-4.91 1.7-9.58 1.2-14-1.5a119.41 119.41 0 0 1-9-9.5c-3.29-11.48-5.79-23.15-7.5-35-7.39-88.201 3.28-174.201 32-258 7.78-22.559 18.45-43.559 32-63 5.21-7.225 12.05-12.058 20.5-14.5.84-1.011 1.17-2.178 1-3.5z"/><path fill="#3e3e3e" d="M407.5 506.5c-1.075 2.356-1.075 4.689 0 7 5.973 5.814 11.473 12.147 16.5 19 1.478 2.658 2.645 5.325 3.5 8a462.3 462.3 0 0 0-31.5 47c-5.979 10.291-11.146 20.958-15.5 32-1.729.736-2.729 2.07-3 4l-9 70c-.61.891-.943 1.891-1 3 .592 3.191 1.759 6.191 3.5 9l.5 15c-1.167 20.007-1.167 40.007 0 60a182.6 182.6 0 0 0-5 45.5l2.5 66.5c-5.3 5.292-11.3 6.292-18 3-.383.556-.883.889-1.5 1-3.162-4.64-5.662-9.64-7.5-15-1.738-13.954-2.905-27.954-3.5-42 2.244-20.286 4.077-40.619 5.5-61l3-79c.038-4.37 2.205-6.87 6.5-7.5-5.451-5.569-7.784-12.236-7-20a1409.35 1409.35 0 0 0 4.5-41.5 44.99 44.99 0 0 1 4-14c2.304-1.568 4.804-2.735 7.5-3.5-4.301-5.224-5.134-11.058-2.5-17.5 9.902-23.806 20.902-47.14 33-70 2.991-5.153 6.824-9.486 11.5-13 .511-2.384 1.511-4.384 3-6z"/><path fill="#282828" d="M386.5 886.5a395.85 395.85 0 0 1-7.5-39l-5-58a111.26 111.26 0 0 0-2.5 27.5l3.5 73.5c-1.738 3.741-4.238 6.908-7.5 9.5-5.815.877-11.482.377-17-1.5l-1-2c.617-.111 1.117-.444 1.5-1 6.7 3.292 12.7 2.292 18-3l-2.5-66.5a182.6 182.6 0 0 1 5-45.5c-1.167-19.993-1.167-39.993 0-60l-.5-15c-1.741-2.809-2.908-5.809-3.5-9 9.256 1.138 18.589 1.305 28 .5 4.295-.898 8.128-2.731 11.5-5.5-5.757 13.933-10.757 28.266-15 43-11.588 50.3-13.422 100.966-5.5 152z"/><path fill="#3d3d3d" d="M1153.5 692.5c1.65.979 2.98 2.312 4 4a182.51 182.51 0 0 0 19 1.5c1.02.519 1.68 1.353 2 2.5 7.68 52.674 2.51 104.007-15.5 154a251.03 251.03 0 0 0-6 41c-2.24 7.67-6.74 13.503-13.5 17.5-5.26 1.163-10.1.329-14.5-2.5-2.76-19.292-.42-37.959 7-56l8-35c4.92-12.013 9.42-24.18 13.5-36.5-.41-1.144-.74-2.311-1-3.5 2.68-18.905 3.51-37.905 2.5-57a198.28 198.28 0 0 0-20 34c-18.22 41.993-31.22 85.66-39 131-9.3 47.608-12.63 95.608-10 144 .69 13.11 4.03 25.44 10 37a21.46 21.46 0 0 0 5.5 5.5c-6.72 2.2-12.22.37-16.5-5.5-7.91-14.62-12.24-30.28-13-47-3.37-94.136 11.97-185.136 46-273 8.22-20.119 18.72-38.786 31.5-56z"/><path fill="#3e3e3e" d="M1216.5 671.5c3.14.299 5.31 1.966 6.5 5 2.87 17.875 4.2 35.875 4 54 3.29 16.549 8.96 32.216 17 47 1.2 2.687 1.36 5.354.5 8 8.31 14.345 11.64 29.845 10 46.5-1.29 52.658-13.79 102.491-37.5 149.5-5.17 9.49-11.67 17.99-19.5 25.5a30.2 30.2 0 0 1-12.5 5.5c-2.8-.32-5.3-1.32-7.5-3a16.91 16.91 0 0 0-1 8c.07-6.23-1.76-11.9-5.5-17a128.69 128.69 0 0 1-5.5-37 392.18 392.18 0 0 1 11.5-80c7.53-31.376 20.19-60.376 38-87 5.38-7.242 12.21-12.242 20.5-15-.71-1.297-2.37-1.964-5-2-2.85-11.227-9.52-14.06-20-8.5a53.47 53.47 0 0 0-8 6.5 78.09 78.09 0 0 0-11.5 14 442.84 442.84 0 0 1-13 25c3.26-16.126 5.59-32.459 7-49 1.1-23.112-.07-46.112-3.5-69l1-3 29-18.5c1.87-1.704 3.54-3.537 5-5.5z"/><path fill="#010101" d="M1235.5 781.5c-9.23-2.179-18.56-3.845-28-5a39.15 39.15 0 0 0-5 1 53.47 53.47 0 0 1 8-6.5c10.48-5.56 17.15-2.727 20 8.5 2.63.036 4.29.703 5 2z"/><path fill="#3e3e3e" d="M386.5 886.5c6.035 36.784 17.035 72.117 33 106-24.291-.775-41.124-12.442-50.5-35-3.017-6.717-5.017-13.717-6-21-6.268-11.97-10.434-24.637-12.5-38 5.518 1.877 11.185 2.377 17 1.5 3.262-2.592 5.762-5.759 7.5-9.5l-3.5-73.5a111.26 111.26 0 0 1 2.5-27.5l5 58a395.85 395.85 0 0 0 7.5 39z"/><path fill="#585858" d="M459.5 807.5c1.567 1.181 2.401 2.847 2.5 5 .747 3.424.58 6.757-.5 10-7.018 6.348-14.351 12.348-22 18-.767.672-1.434 1.505-2 2.5-8.66.5-17.327.666-26 .5-.149-1.052.017-2.052.5-3a459.47 459.47 0 0 1 47.5-33z"/><path fill="#575757" d="M1017.5 811.5a1124.36 1124.36 0 0 1-8 41c-24.732 13.903-49.398 28.736-74 44.5-1.845 1.128-3.845 1.628-6 1.5a163.42 163.42 0 0 1-1-34l85-52.5a8.43 8.43 0 0 1 4-.5z"/><path fill="#2a2a2a" d="M461.5 822.5c.617.111 1.117.444 1.5 1a37.12 37.12 0 0 0 4.5 19c-.124.607-.457.94-1 1-8.673.166-17.34 0-26-.5-.752-.671-1.086-1.504-1-2.5 7.649-5.652 14.982-11.652 22-18z"/><path fill="#676767" d="M1225.5 831.5c3.15-.541 5.65.459 7.5 3 2.29 5.589 3.46 11.422 3.5 17.5-2.32 37.461-11.16 73.295-26.5 107.5-3.52 7.558-8.35 14.058-14.5 19.5-6.38.973-9.88-1.861-10.5-8.5-.67-39.638 6.99-77.638 23-114 3.9-9.838 9.73-18.171 17.5-25z"/><path fill="#a8a8a8" d="M459.5 800.5c1.333 2.333 1.333 4.667 0 7a459.47 459.47 0 0 0-47.5 33c-.483.948-.649 1.948-.5 3 8.673.166 17.34 0 26-.5.566-.995 1.233-1.828 2-2.5-.086.996.248 1.829 1 2.5 8.66.5 17.327.666 26 .5 23.479 2.539 47.145 4.706 71 6.5 5.711.742 11.378 1.742 17 3 2.05.416 3.384 1.583 4 3.5a343.32 343.32 0 0 0-91-5c-23.319-2.309-46.652-2.475-70-.5l-3 1.5c-.718-1.637-.884-3.303-.5-5a26.9 26.9 0 0 0 5.5-6.5 897.93 897.93 0 0 1 32-21.5c.667 0 1-.333 1-1l27-18z"/><path fill="#7f7f7f" d="M558.5 856.5c23.941 5.61 47.775 11.61 71.5 18a21.99 21.99 0 0 1 12.5 0c.111.617.444 1.117 1 1.5a484.01 484.01 0 0 0 44 0l78-10 41-2.5h1a3152.74 3152.74 0 0 1 119.5 2c.383-.556.883-.889 1.5-1a163.42 163.42 0 0 0 1 34c-4.44 2.315-9.107 4.149-14 5.5-2.739 1.026-5.072 2.526-7 4.5-1.294.79-2.461 1.79-3.5 3-.853 3.969-1.519 7.969-2 12l-4 52c-5.439 21.07-17.272 37.24-35.5 48.5-13.966 4.46-28.133 7.63-42.5 9.5l-40.5-1.5c-8.509-.64-16.842-2.14-25-4.5-2.469-.82-5.135-1.32-8-1.5a256.03 256.03 0 0 0-26-16 74.76 74.76 0 0 0-14.5-14.5c-5.844-9.021-12.178-17.688-19-26-2.656-8.171-6.156-15.838-10.5-23a137.23 137.23 0 0 0-10.5-29l-9.5-9.5c-5.246-1.506-10.579-1.839-16-1-5.934 3.933-10.434 9.1-13.5 15.5a741.73 741.73 0 0 0-11.5 36c-1.371 2.436-2.371 5.103-3 8-1.508 1.681-2.508 3.681-3 6-16.256 28.57-41.09 43.23-74.5 44-17.222.16-34.056-2.17-50.5-7a264.45 264.45 0 0 1-27-14.5c-1.936-.813-3.936-1.313-6-1.5-2.963-3.574-6.463-6.574-10.5-9l-3-5c-.383.556-.883.889-1.5 1a228.78 228.78 0 0 1-9.5-18c-5.751-17.248-9.418-34.915-11-53-1.016-4.421-2.349-8.755-4-13-3.743-6.795-9.243-11.628-16.5-14.5-1.201-.903-2.035-2.069-2.5-3.5-.802-8.745-.636-17.412.5-26l3-1.5c23.348-1.975 46.681-1.809 70 .5a343.32 343.32 0 0 1 91 5z"/><path fill="#fcfcfc" d="M1009.5 852.5a593.55 593.55 0 0 0-7 48c-26.803-2.196-53.136.304-79 7.5l-11.5 1.5c-1.385-.014-2.551-.348-3.5-1 1.928-1.974 4.261-3.474 7-4.5 4.893-1.351 9.56-3.185 14-5.5 2.155.128 4.155-.372 6-1.5 24.602-15.764 49.268-30.597 74-44.5z"/><path fill="#fefefe" d="M605.5 953.5c-25.77-7.203-51.437-15.036-77-23.5a435.22 435.22 0 0 1-36-16c-1.444-.781-2.777-.614-4 .5-1.288 2.239-2.288 4.572-3 7-.904.709-1.237 1.709-1 3l-25 54c-12.578-12.814-20.744-28.147-24.5-46-3.638-21.451-3.138-42.784 1.5-64 15.148-7.876 31.315-11.543 48.5-11 30.175 1.251 60.008 5.084 89.5 11.5 14.507 6.346 27.007 15.513 37.5 27.5 1.784 19.502-.383 38.502-6.5 57z"/><path fill="#a9a9a9" d="M1019.5 801.5a53.85 53.85 0 0 1-2 10 8.43 8.43 0 0 0-4 .5l-85 52.5c-.617.111-1.117.444-1.5 1a3152.74 3152.74 0 0 0-119.5-2c1.109-.79 2.442-1.29 4-1.5l114-3a2253.17 2253.17 0 0 1 94-57.5z"/><path fill="#f9f9f9" d="M407.5 861.5a60.93 60.93 0 0 1 11 .5c2.564 2.276 2.23 4.276-1 6-5.984 2.9-10.651 1.567-14-4a51.22 51.22 0 0 1 4-2.5z"/><path fill="#a9a9a9" d="M806.5 863.5l-41 2.5-78 10a484.01 484.01 0 0 1-44 0c-.556-.383-.889-.883-1-1.5 54.394-7.648 109.061-11.315 164-11z"/><path fill="#fefefe" d="M882.5 915.5a3092.67 3092.67 0 0 0-117 11.5c-2.332 4.78-3.332 9.947-3 15.5-.667 0-1 .333-1 1-3.65 19.288-7.65 38.621-12 58-.768.76-1.268 1.76-1.5 3a81.1 81.1 0 0 1-28-24c-18.94-25.222-30.107-53.555-33.5-85 13.098-8.878 27.431-15.045 43-18.5 29.237-4.136 58.57-5.136 88-3 15.374 1.523 29.707 6.189 43 14 10.17 6.993 17.504 16.159 22 27.5z"/><path fill="#a8a9a9" d="M436.5 868.5c-4.638 21.216-5.138 42.549-1.5 64 3.756 17.853 11.922 33.186 24.5 46 .528 1.221 1.195 2.387 2 3.5 12.601 10.315 26.934 16.982 43 20 9.264 1.66 18.597 2.49 28 2.5-25.015 2.27-48.681-2.56-71-14.5-14.813-11.17-24.479-25.836-29-44-6.24-19.087-8.073-38.587-5.5-58.5 2.144-6.99 5.311-13.324 9.5-19z"/><path fill="#f9f9f9" d="M892.5 882.5c5.276.221 9.776 2.221 13.5 6 .667.667.667 1.333 0 2-8.646 7.141-16.813 6.641-24.5-1.5 3.596-2.461 7.263-4.627 11-6.5z"/><path fill="#fdfdfd" d="M677.5 946.5l-28 11.5c-1.824.66-3.157 1.827-4 3.5a105.29 105.29 0 0 1-25.5-4c-1.326.255-2.326.922-3 2a.91.91 0 0 1-.5-1 741.73 741.73 0 0 1 11.5-36c3.066-6.4 7.566-11.567 13.5-15.5 5.421-.839 10.754-.506 16 1l9.5 9.5a137.23 137.23 0 0 1 10.5 29z"/><path fill="#7b9db3" d="M1002.5 900.5a1080.46 1080.46 0 0 1 11.5 31c3.75 7.6 3.25 14.767-1.5 21.5 2.07 1.47 3.41 3.47 4 6-1.49 2.322-3.16 4.489-5 6.5 2.21 4.531.88 7.198-4 8a28.77 28.77 0 0 1 1 10c8.09-.316 10.09 2.684 6 9a14.83 14.83 0 0 0 3 3.5 50.5 50.5 0 0 1-7.5 4.5c-.49 1.29-.66 2.63-.5 4 5.58-1.25 8.24.92 8 6.5a33.94 33.94 0 0 1-7.5 16.5c-1.93 5.85-1.43 11.52 1.5 17-1.57 1.18-2.4 2.85-2.5 5a1735.73 1735.73 0 0 0-4 58c-4.94 9.26-10.268 18.26-16 27l-36 50c-13.038 14.04-25.705 28.37-38 43-21.167 19.83-41.667 40.33-61.5 61.5-29.391 26.87-63.391 45.7-102 56.5-6.887-1.92-13.554-4.75-20-8.5-2.484-2.98-5.15-5.82-8-8.5a149.68 149.68 0 0 1-14.5-30 565.28 565.28 0 0 0-20-84 459.31 459.31 0 0 0-14-58 2478.26 2478.26 0 0 0-25-105c-1.232-12.97-2.232-25.97-3-39-.002-2.55-.836-4.55-2.5-6 .331-8.36-.002-16.693-1-25-10.624-2.948-21.124-6.281-31.5-10-.383.556-.883.889-1.5 1 .492-2.319 1.492-4.319 3-6-.03.997.47 1.664 1.5 2 9.647 3.383 19.48 6.049 29.5 8-.319-4.863.014-9.53 1-14 1.25.077 2.083.744 2.5 2l.5 6.5c-.22 4.215-1.22 8.049-3 11.5h3c-.179 12.361.321 24.69 1.5 37 3.967 4.99 6.634 10.66 8 17 8.068 15.4 19.568 27.57 34.5 36.5 8.621 10.74 14.454 22.91 17.5 36.5 5.37 15.31 12.537 29.64 21.5 43 6.799-12.95 11.966-26.62 15.5-41 2.784-26.84 4.951-53.67 6.5-80.5-.837-1.01-1.17-2.18-1-3.5h3c8.158 2.36 16.491 3.86 25 4.5l40.5 1.5c14.367-1.87 28.534-5.04 42.5-9.5 18.228-11.26 30.061-27.43 35.5-48.5l4-52c.481-4.031 1.147-8.031 2-12 1.039-1.21 2.206-2.21 3.5-3 .949.652 2.115.986 3.5 1l11.5-1.5c25.864-7.196 52.197-9.696 79-7.5z"/><path fill="#67889c" d="M994.5 917.5h13c.17 1.322-.16 2.489-1 3.5-34.595 1.688-68.929 5.521-103 11.5v-4c30.241-5.455 60.574-9.122 91-11z"/><path fill="#88afc8" d="M484.5 924.5a622.97 622.97 0 0 0 32 14.5c22.711 7.531 45.045 15.864 67 25l15 3.5c-5.307 11.79-13.307 21.29-24 28.5-13.37 5.73-27.37 8.56-42 8.5-9.403-.01-18.736-.84-28-2.5-16.066-3.018-30.399-9.685-43-20-.805-1.113-1.472-2.279-2-3.5l25-54z"/><path fill="#67889c" d="M761.5 943.5c0-.667.333-1 1-1l122-13v4l-116.5 12c-2.61-.033-4.777-.7-6.5-2z"/><path fill="#a8a9a9" d="M686.5 895.5c3.393 31.445 14.56 59.778 33.5 85a81.1 81.1 0 0 0 28 24c.232-1.24.732-2.24 1.5-3-.172 1.99.495 3.66 2 5a283.04 283.04 0 0 0 32 8.5l38 .5a259.06 259.06 0 0 0 26-3.5c4.824-2.22 9.824-3.72 15-4.5-6.141 6.74-13.808 10.91-23 12.5-15.65 1.09-31.317 1.92-47 2.5-31.492-2.17-57.659-14.83-78.5-38-15.199-21.406-25.199-45.073-30-71-.667-4.667-.667-9.333 0-14 .2-1.82 1.034-3.153 2.5-4z"/><path fill="#7b9db3" d="M882.5 915.5c2.493 8.615 3.493 17.448 3 26.5-.063 9.857-.563 19.69-1.5 29.5-1.679 7.016-4.179 13.683-7.5 20a352.47 352.47 0 0 0-14 16c-5.176.78-10.176 2.28-15 4.5a259.06 259.06 0 0 1-26 3.5l-38-.5a283.04 283.04 0 0 1-32-8.5c-1.505-1.34-2.172-3.01-2-5 4.35-19.379 8.35-38.712 12-58 1.723 1.3 3.89 1.967 6.5 2l116.5-12v-4l-122 13c-.332-5.553.668-10.72 3-15.5a3092.67 3092.67 0 0 1 117-11.5z"/><path fill="#7395ad" d="M485.5 921.5c29.677 12.43 59.677 24.264 90 35.5 8.219 2.97 16.553 5.47 25 7.5.073 1.527-.594 2.527-2 3a533.73 533.73 0 0 0-15-3.5c-21.955-9.136-44.289-17.469-67-25a622.97 622.97 0 0 1-32-14.5c-.237-1.291.096-2.291 1-3z"/><path fill="#89b0c8" d="M605.5 953.5a82.25 82.25 0 0 1-5 11c-8.447-2.03-16.781-4.53-25-7.5-30.323-11.236-60.323-23.07-90-35.5.712-2.428 1.712-4.761 3-7 1.223-1.114 2.556-1.281 4-.5a435.22 435.22 0 0 0 36 16c25.563 8.464 51.23 16.297 77 23.5z"/><path fill="#7294aa" d="M677.5 946.5c4.344 7.162 7.844 14.829 10.5 23 6.822 8.312 13.156 16.979 19 26a74.76 74.76 0 0 1 14.5 14.5 256.03 256.03 0 0 1 26 16c2.865.18 5.531.68 8 1.5h-3c-.17 1.32.163 2.49 1 3.5-1.549 26.83-3.716 53.66-6.5 80.5-3.534 14.38-8.701 28.05-15.5 41-8.963-13.36-16.13-27.69-21.5-43-3.046-13.59-8.879-25.76-17.5-36.5-14.932-8.93-26.432-21.1-34.5-36.5-1.366-6.34-4.033-12.01-8-17-1.179-12.31-1.679-24.639-1.5-37h-3c1.78-3.451 2.78-7.285 3-11.5l-.5-6.5c-.417-1.256-1.25-1.923-2.5-2v-1c.843-1.673 2.176-2.84 4-3.5l28-11.5z"/><path fill="#89afc7" d="M645.5 961.5v1c-.986 4.47-1.319 9.137-1 14-10.02-1.951-19.853-4.617-29.5-8-1.03-.336-1.53-1.003-1.5-2 .629-2.897 1.629-5.564 3-8a.91.91 0 0 0 .5 1c.674-1.078 1.674-1.745 3-2a105.29 105.29 0 0 0 25.5 4z"/><path fill="#88afc8" d="M644.5 1006.5c-3.492 6.31-7.492 12.31-12 18-1.128 4.62-3.628 8.29-7.5 11-1.571 4.56-4.238 8.22-8 11-10.253 14.84-20.253 29.84-30 45-7.879 8.21-15.379 16.71-22.5 25.5a232.23 232.23 0 0 1-32 8c-8.02.43-16.02.1-24-1-5.75-2.61-11.75-4.61-18-6a180.92 180.92 0 0 1-12-10.5c-2.718-4.89-6.551-8.55-11.5-11-1.908 1.32-2.742 3.15-2.5 5.5a110.22 110.22 0 0 0 5 21.5c-.546 1.63-.88 3.3-1 5-10.386-14.78-17.552-31.12-21.5-49-5.73-20.28-8.897-40.94-9.5-62v-37c.617-.111 1.117-.444 1.5-1l3 5c4.037 2.426 7.537 5.426 10.5 9-2.373 3.967-2.54 8.3-.5 13l15 30c4.164 12.34 8.998 24.34 14.5 36h4a182.87 182.87 0 0 1 2-35.5c-.686-6.48-1.186-12.98-1.5-19.5-2.201-2.88-2.368-5.54-.5-8 16.444 4.83 33.278 7.16 50.5 7 33.41-.77 58.244-15.43 74.5-44 .617-.111 1.117-.444 1.5-1 10.376 3.719 20.876 7.052 31.5 10 .998 8.307 1.331 16.64 1 25z"/><path fill="#7294ab" d="M452.5 993.5c2.064.187 4.064.687 6 1.5a264.45 264.45 0 0 0 27 14.5c-1.868 2.46-1.701 5.12.5 8 .314 6.52.814 13.02 1.5 19.5a182.87 182.87 0 0 0-2 35.5h-4c-5.502-11.66-10.336-23.66-14.5-36l-15-30c-2.04-4.7-1.873-9.033.5-13z"/><path fill="#81a6bd" d="M644.5 1006.5c1.664 1.45 2.498 3.45 2.5 6 .768 13.03 1.768 26.03 3 39a2478.26 2478.26 0 0 1 25 105 459.31 459.31 0 0 1 14 58 565.28 565.28 0 0 1 20 84 149.68 149.68 0 0 0 14.5 30c2.85 2.68 5.516 5.52 8 8.5 6.446 3.75 13.113 6.58 20 8.5-.691 1.52-1.858 2.52-3.5 3l-30.5-.5c-23.898-10.28-45.898-23.61-66-40-26.847-16.59-53.18-33.92-79-52-13.069-13.07-26.736-25.41-41-37-5.533-5.2-10.7-10.7-15.5-16.5-4.573-7.24-9.907-13.91-16-20a193.73 193.73 0 0 0-18-27c-3.999-9.33-8.499-18.33-13.5-27 .12-1.7.454-3.37 1-5a110.22 110.22 0 0 1-5-21.5c-.242-2.35.592-4.18 2.5-5.5 4.949 2.45 8.782 6.11 11.5 11a180.92 180.92 0 0 0 12 10.5c6.25 1.39 12.25 3.39 18 6 7.98 1.1 15.98 1.43 24 1a232.23 232.23 0 0 0 32-8c7.121-8.79 14.621-17.29 22.5-25.5 9.747-15.16 19.747-30.16 30-45 3.762-2.78 6.429-6.44 8-11 3.872-2.71 6.372-6.38 7.5-11 4.508-5.69 8.508-11.69 12-18z"/></svg>
